<svg width="125.000000" height="25.000000" viewBox="0 0 125 25" fill="none" xmlns="http://www.w3.org/2000/svg" xmlns:xlink="http://www.w3.org/1999/xlink">
	<desc>
			Created with Pixso.
	</desc>
	<defs>
		<clipPath id="clip1_1370">
			<rect id="logo (5) 1" width="125.000000" height="25.000000" fill="white" fill-opacity="0"/>
		</clipPath>
	</defs>
	<rect id="logo (5) 1" width="125.000000" height="25.000000" fill="#FFFFFF" fill-opacity="0"/>
	<g clip-path="url(#clip1_1370)">
		<path id="Vector" d="M70.81 0.39L64.28 0.39L64.28 24.06L70.81 24.06L70.81 0.39Z" fill="#B1B1B1" fill-opacity="1.000000" fill-rule="nonzero"/>
		<path id="Vector" d="M80.2 6.95L73.6 6.95L73.6 24.14L80.2 24.14L80.2 6.95Z" fill="#B1B1B1" fill-opacity="1.000000" fill-rule="nonzero"/>
		<path id="Vector" d="M80.2 0.39L73.6 0.39L73.6 4.92L80.2 4.92L80.2 0.39Z" fill="#B1B1B1" fill-opacity="1.000000" fill-rule="nonzero"/>
		<path id="Vector" d="M0 19.37L6.52 18.75C6.75 19.53 7.14 20.07 7.6 20.39C8.07 20.7 9.7 21.01 10.55 21.01C11.41 21.01 11.1 20.7 11.56 20.39C11.95 20.07 12.11 19.76 12.11 19.37C12.11 18.9 11.87 18.51 11.33 18.28C10.94 18.12 10.01 17.89 8.54 17.57C6.28 17.18 4.65 16.79 3.8 16.48C2.95 16.17 2.17 15.54 1.55 14.76C0.93 13.98 0.62 13.04 0.62 12.03C0.62 10.85 0.93 9.92 1.63 9.14C2.25 8.35 3.18 7.73 4.34 7.26C5.51 6.87 7.06 6.64 8.92 6.64C10.94 6.64 12.5 6.79 13.43 7.1C14.44 7.42 15.21 7.89 15.83 8.51C16.45 9.14 17 10.07 17.46 11.17L11.25 11.79C11.1 11.25 10.86 10.85 10.48 10.54C9.93 10.23 9.39 10 8.61 10C7.91 10 7.37 10.15 6.98 10.39C6.67 10.62 6.52 10.93 6.52 11.32C6.52 11.71 6.75 12.03 7.14 12.26C7.53 12.5 8.54 12.65 9.93 12.89C12.11 13.12 13.74 13.51 14.75 13.9C15.83 14.37 16.61 15 17.15 15.78C17.7 16.56 18.01 17.5 18.01 18.51C18.01 19.53 17.7 20.46 17.15 21.4C16.53 22.34 15.6 23.12 14.36 23.67C13.12 24.21 11.33 24.53 9.16 24.53C6.05 24.53 3.8 24.06 2.48 23.2C1.24 22.26 0.38 21.01 0 19.37Z" fill="#B01736" fill-opacity="1.000000" fill-rule="nonzero"/>
		<path id="Vector" d="M21.89 22.42C23.6 23.82 25.77 24.53 28.57 24.53C31.67 24.53 34.08 23.67 35.79 22.03C37.5 20.31 38.43 18.2 38.43 15.54C38.43 13.2 37.73 11.25 36.33 9.6C34.62 7.57 31.98 6.64 28.57 6.64C25.54 6.64 23.21 7.5 21.42 9.21C19.64 10.93 18.78 13.04 18.78 15.7C18.78 18.35 19.87 20.62 21.89 22.42ZM26.32 12.1C26.94 11.32 27.71 11.01 28.72 11.01C29.65 11.01 30.35 11.4 30.97 12.1C31.59 12.81 31.91 13.98 31.91 15.46C31.91 17.1 31.59 18.28 30.97 18.98C30.35 19.68 29.58 20.07 28.64 20.07C27.71 20.07 26.94 19.68 26.32 18.98C25.69 18.2 25.38 17.1 25.38 15.54C25.38 13.98 25.69 12.81 26.32 12.1Z" fill="#B01736" fill-opacity="1.000000" fill-rule="nonzero"/>
		<path id="Vector" d="M47.2 6.95L50.31 6.95L50.31 11.79L47.2 11.79L47.2 24.14L40.6 24.14L40.6 11.79L38.12 11.79L38.12 6.95L40.6 6.95L40.6 6.17C40.6 5.46 40.68 4.68 40.84 3.82C40.99 2.96 41.3 2.26 41.69 1.79C42.16 1.25 42.78 0.78 43.48 0.46C44.25 0.15 45.34 0 46.74 0C47.9 0 49.53 0.15 51.78 0.39L51.01 4.37C50.23 4.21 49.61 4.21 49.07 4.21C48.45 4.21 48.06 4.29 47.83 4.53C47.59 4.68 47.44 5 47.36 5.39C47.28 5.62 47.2 6.17 47.2 6.95Z" fill="#B01736" fill-opacity="1.000000" fill-rule="nonzero"/>
		<path id="Vector" d="M59 11.79L59 17.89C59 18.59 59.08 19.14 59.23 19.37C59.47 19.76 59.86 19.92 60.32 19.92C60.79 19.92 61.49 19.76 62.34 19.53L62.81 24.06C61.18 24.45 59.7 24.6 58.3 24.6C56.67 24.6 55.51 24.37 54.73 23.98C53.96 23.59 53.41 22.89 53.02 22.03C52.64 21.17 52.48 19.76 52.48 17.89L52.48 11.87L50.07 11.87L50.07 6.95L52.48 6.95L52.48 3.82L59 0.39L59 6.95L59 11.79Z" fill="#B01736" fill-opacity="1.000000" fill-rule="nonzero"/>
		<path id="Vector" d="M82.68 6.95L88.82 6.95L88.82 9.76C89.75 8.59 90.68 7.81 91.61 7.34C92.54 6.87 93.71 6.64 95.03 6.64C96.81 6.64 98.29 7.18 99.3 8.28C100.31 9.37 100.85 11.01 100.85 13.28L100.85 24.21L94.25 24.21L94.25 14.68C94.25 13.59 94.02 12.81 93.63 12.42C93.24 11.95 92.7 11.71 91.92 11.71C91.14 11.71 90.52 12.03 89.98 12.65C89.51 13.28 89.2 14.37 89.2 15.93L89.2 24.21L82.6 24.21L82.6 6.95L82.68 6.95Z" fill="#B1B1B1" fill-opacity="1.000000" fill-rule="nonzero"/>
		<path id="Vector" d="M121.97 16.4C121.97 14.14 121.58 12.26 120.88 10.85C120.1 9.45 119.09 8.35 117.62 7.57C116.22 6.79 114.28 6.48 111.87 6.48C108.84 6.48 106.52 7.34 104.81 8.98C103.1 10.62 102.25 12.81 102.25 15.46C102.25 17.34 102.63 18.98 103.49 20.39C104.34 21.79 105.43 22.81 106.67 23.43C107.99 24.06 109.78 24.37 112.03 24.37C114.59 24.37 116.61 23.98 118.01 23.28C119.4 22.5 120.57 21.32 121.58 19.6L115.13 18.98C114.75 19.53 114.36 19.84 113.97 20.07C113.43 20.39 112.8 20.54 112.18 20.54C111.17 20.54 110.4 20.15 109.7 19.45C109.23 18.9 109 18.12 108.84 17.1L121.89 17.1L121.89 16.4L121.97 16.4ZM108.92 14.06C109 13.04 109.31 12.26 109.7 11.71C110.32 10.85 111.17 10.46 112.18 10.46C113.12 10.46 113.81 10.78 114.36 11.32C114.9 11.87 115.21 12.81 115.37 14.06L108.92 14.06Z" fill="#B1B1B1" fill-opacity="1.000000" fill-rule="nonzero"/>
		<path id="Vector" d="M30.04 2.65C37.5 3.43 40.52 4.13 47.51 6.01C53.33 7.57 62.57 6.87 62.57 6.87L62.57 11.71C58.92 12.18 51.08 12.03 44.56 9.6C32.84 5.38 27.56 4.53 21.35 4.06C12.81 3.43 2.71 4.76 2.71 4.76L2.64 3.9C2.64 3.9 17.23 1.32 30.04 2.65Z" fill="#B1B1B1" fill-opacity="1.000000" fill-rule="nonzero"/>
		<path id="Vector" d="M121.74 3.59L122.05 3.59C122.51 3.59 122.59 3.35 122.59 3.2C122.59 2.89 122.13 2.89 122.05 2.89L121.74 2.89L121.74 3.59ZM122.28 2.34C122.98 2.34 123.29 2.73 123.29 3.12C123.29 3.51 122.98 3.75 122.67 3.82C122.82 3.9 122.98 4.06 122.98 4.14L123.44 5.31L122.67 5.31L122.28 4.37C122.28 4.29 122.13 4.14 121.89 4.14L121.74 4.14L121.74 5.31L120.96 5.31L120.96 2.34L122.28 2.34ZM122.05 6.09C123.29 6.09 124.3 5.07 124.3 3.82C124.3 2.57 123.29 1.56 122.05 1.56C120.81 1.56 119.8 2.57 119.8 3.82C119.8 5.07 120.81 6.09 122.05 6.09ZM122.05 0.85C123.68 0.85 125 2.18 125 3.82C125 5.46 123.68 6.79 122.05 6.79C120.42 6.79 119.1 5.46 119.1 3.82C119.17 2.18 120.42 0.85 122.05 0.85Z" fill="#B1B1B1" fill-opacity="1.000000" fill-rule="nonzero"/>
	</g>
</svg>
